PathFileType	4	(X/Y/Z)	T1_P2_NoVision_NoMovement_3_0-734.trc
DataRate	CameraRate	NumFrames	NumMarkers	Units	OrigDataRate	OrigDataStartFrame	OrigNumFrames
60	60	6	27	m	60	367	734
Frame#	Time	RHip			RKnee			RAnkle			RBigToe			RSmallToe			RHeel			LHip			LKnee			LAnkle			LBigToe			LSmallToe			LHeel			Neck			Head			Nose			RShoulder			RElbow			RWrist			RThumb			RIndex			RPinky			LShoulder			LElbow			LWrist			LThumb			LIndex			LPinky		
		X1	Y1	Z1	X2	Y2	Z2	X3	Y3	Z3	X4	Y4	Z4	X5	Y5	Z5	X6	Y6	Z6	X7	Y7	Z7	X8	Y8	Z8	X9	Y9	Z9	X10	Y10	Z10	X11	Y11	Z11	X12	Y12	Z12	X13	Y13	Z13	X14	Y14	Z14	X15	Y15	Z15	X16	Y16	Z16	X17	Y17	Z17	X18	Y18	Z18	X19	Y19	Z19	X20	Y20	Z20	X21	Y21	Z21	X22	Y22	Z22	X23	Y23	Z23	X24	Y24	Z24	X25	Y25	Z25	X26	Y26	Z26	X27	Y27	Z27
368	6.133333333333334	466.2294527611478	3654.3998019150404	544.6636163982959	866.0496653302971	3690.428057156077	548.2037635793364	1248.562404185903	3751.4523355608494	619.0403601770148	1317.218009380323	3630.629612009413	565.5462243941124	1306.3240476831852	3672.3954994813826	519.9264705028168	1275.539861760978	3729.5951930793585	624.9013892066279	459.93199655593025	3542.4145314917273	746.1383563620312	866.5328339851178	3555.5181900499338	742.5474706218948	1215.6135336268512	3604.5982270244367	726.6267268159555	1308.517071602191	3527.0526902690203	683.6689472203936	1267.251725819986	3451.0018948299803	706.0375419772416	1257.707609643543	3609.772736608753	703.4316103565642	-108.1760279156632	3566.589916274743	645.2356025113031	-367.7914477967338	3500.387954696437	627.5993027948247	-213.4219854338407	3489.725765041702	620.5732746556841	-44.21077504954487	3744.5806565332423	544.6355910822963	207.6256268651731	3724.3466637780325	472.3060898273263	358.4029278288315	3494.83356008843	511.88595830190195	417.2388069775916	3491.453509940412	596.6853179537661	435.8160081362606	3505.256524995518	621.1568943076454	465.34821703754176	3476.655172581599	598.1809296812442	-27.147150902864283	3582.2878433235733	831.3929246419341	221.49535206907163	3496.9259850019366	810.0295800794718	369.1192136938491	3429.0854314497774	616.8442625453873	416.5982556280569	3439.856082177772	519.3306200897352	441.20145695024956	3464.950919512302	525.0314199428524	464.91190246334213	3447.1084792283664	590.2326067379321
369	6.15	467.6690419569838	3655.2927320974554	545.0095098644783	867.652054275643	3697.188087989376	554.631155998357	1247.7380707283896	3750.593201366145	618.7378298265152	1317.1765219657439	3634.01090276692	566.659166320789	1307.1189419851166	3674.9472105584023	520.6178605197413	1274.916473281804	3728.5503559107324	624.7559373332443	459.04245123893946	3539.0637687411363	745.0455413578758	865.0782357648011	3555.818063197037	742.5799396902344	1213.6566056484473	3601.351517769483	725.7390613713444	1306.316122604636	3526.928326384867	682.8932132581128	1264.8041784453912	3444.508225785629	703.9190692729876	1257.6970673448664	3609.2667860048705	703.2748969603367	-108.17670532498805	3566.5331879988307	645.2328321097269	-369.6977722775667	3501.146168945836	628.0610765141566	-214.1748423688229	3490.4528914726698	620.9551444116878	-44.10722601679383	3743.940023399005	545.7400986424395	207.11906116765138	3723.837841027542	472.16367773846156	358.41967041033416	3494.8146292669053	511.9066656152943	418.332414121076	3498.3864040802405	599.7351253892444	435.4727796872821	3505.2014014348706	621.1477931352807	465.4096719604481	3475.3562749936546	599.8976646429586	-27.08117902939289	3583.5154550713655	832.3647642537749	221.9653250901814	3497.8845010598034	810.0824716839427	369.71300892751833	3429.1052819530623	616.4935836349404	415.65082176618336	3440.8751161684795	520.7842811055029	440.820532449758	3471.2377694660836	530.1462428859255	464.2349155674568	3446.812675936626	590.0957264702032
370	6.166666666666667	467.6635425430991	3655.6247863370945	545.1300724155982	870.5605585889357	3705.4280222642624	561.1939817855257	1245.9992656868153	3748.100163783225	617.8794864273391	1317.5775861869643	3635.283029889233	567.558134636363	1308.376774757835	3678.505899436972	521.5220385097848	1274.1949601270976	3726.5793825069404	624.1380165273117	458.528170568832	3536.950089740012	744.3771513154226	864.0191374865576	3555.7144039034793	742.3689191519238	1215.0989884122007	3602.320788108518	725.9854790105488	1305.5922673808843	3527.2454611709595	682.3327041794159	1263.7044918488723	3441.614279289678	703.1294426825316	1257.462194864819	3610.148257958957	703.828640363163	-108.18849812492839	3566.5194004981986	645.2551384954008	-371.3243960181278	3502.3779304848576	628.6938701994285	-214.5719713117304	3490.8873946032227	621.1880815845057	-44.10742566920481	3743.2977376256385	547.0816805543238	205.95321464827362	3722.4476098349924	471.5425791082405	358.3763694962055	3494.5684459630897	511.7596215042751	418.6172982873558	3500.0307483372258	600.8873640726378	435.2256035806032	3505.3843441757763	621.2113380643297	466.13215799303424	3478.7635573082284	603.9280254410838	-27.349094519326833	3586.426339281034	834.9261867278684	223.06369062970947	3499.734610860627	810.2712770806248	370.0993525829855	3429.375061567418	616.6171146208709	415.0070745057666	3442.865947091901	522.1470420436485	440.49896150783997	3478.045282155618	535.636704517431	462.83901497176464	3446.416857595125	589.796078958982
371	6.183333333333334	466.02381369690215	3655.422605435665	545.0490922916856	873.6779505865303	3711.653024302632	565.6152762705593	1243.7020331208912	3744.4157178910928	616.6182816456267	1318.0125362281206	3633.6696820916377	568.215817126454	1308.5392635169426	3680.151643049032	521.8319806470557	1273.4356859103455	3724.2804273656243	622.8899423499904	457.88943592045763	3536.2709296121097	744.1201980941127	863.138781545903	3555.4854713581567	742.1439838685078	1218.9182702809985	3607.0353400983677	727.1950389420389	1306.6393706729064	3527.9643492253967	682.6193344215301	1264.0844321658165	3443.6578674256616	704.3428193876456	1257.4638168894537	3612.3135268524034	704.8714472741235	-108.2072897659489	3566.5183171422855	645.2783422791215	-371.9903961914534	3503.347621581218	629.0801968342087	-214.19617627751157	3490.613856788484	621.0490038920816	-44.52859208119978	3743.366045463539	547.9478000854833	205.13802696748044	3721.5335788774096	471.1458142929631	358.2512732250083	3494.1766897304497	511.45711817538927	418.0265534015931	3496.0656091007104	600.0717384922714	435.10966497388	3505.7345536885277	621.3119112479152	466.357791731932	3482.5981103244194	607.323646468225	-28.04628855724039	3588.2368365442176	837.2062066293961	223.90365547441257	3498.3391122609573	809.3326698646482	370.061596938476	3430.511763947608	618.3797101623342	414.4105326735675	3445.130357485222	523.9894510041471	440.83854975691713	3485.3403921922754	541.6109071820324	461.31999525915796	3446.3818431234267	589.5115071968966
372	6.2	463.53659680115265	3655.006168087168	544.9165128851541	874.988555916817	3714.0648252618575	566.9985045601695	1242.1578630178449	3742.107763425789	615.7230212923276	1318.3278475387415	3631.04278493968	568.9879649005012	1307.1440791193845	3678.1862999577083	521.1927159256222	1273.8368215966057	3725.186259493115	622.1840722316914	457.1144629632672	3536.19501842669	744.0080346026889	862.4125991158546	3555.236104061698	741.9890065350411	1221.9762002740174	3610.84767818565	728.0316063720898	1308.112234430893	3528.3711610309256	682.9280860267511	1264.5131620188122	3447.081346954802	706.5045239087826	1257.8777251512902	3614.459706481857	705.6882377560738	-108.2271316585199	3566.4877130581035	645.2756088269101	-371.99130315455267	3503.6068637347394	629.0446797799584	-213.4640979113672	3489.97974004149	620.7183275204329	-45.598362673346365	3744.4807077643627	548.2291352113227	205.20631043834896	3721.506895704658	471.1217944097927	358.1386622427543	3494.203483736599	511.4346187410044	417.6452620830653	3492.763970706084	600.7723016795111	435.10023074324806	3506.1249517043	621.4608780459553	465.56083204865695	3484.1603200624904	608.582902066993	-28.944469480669486	3587.504750599366	838.5765615578359	223.94486110675723	3493.059834233955	807.2218737542726	369.6563637958983	3433.1185774027385	622.6525369265544	413.0154473491242	3445.333140924431	526.6006122256435	441.9439565568893	3492.618967491916	547.7053291625311	460.53716648250486	3446.8616907662986	589.3794970583723
373	6.216666666666667	461.7087750372019	3654.8871921299155	545.0408507114713	873.8126529622808	3713.7559669303264	566.2151022843115	1242.285108967847	3742.411276592502	615.6179192288088	1319.0779604294921	3629.8440502217804	569.9890822287324	1305.4386751141126	3674.7236443124734	520.239506036315	1275.0412277087967	3728.2804699988633	622.3447431247245	456.6328899089254	3536.2721987120303	743.9530954531269	862.0338006151962	3555.0208113675544	741.9090231374907	1221.977340772146	3610.2248793514136	727.5821928395636	1308.2035975866686	3527.155739615315	682.2884490805002	1264.1579016245114	3448.1615831826684	708.1599965746502	1257.543968684145	3615.451470888019	705.9140032372674	-108.24165625552541	3566.443142977615	645.2570765672883	-371.90290422399596	3503.722059923682	629.0959505539124	-212.94734039386387	3489.5582549902415	620.5033418132854	-47.00951309281886	3745.996127216213	548.5688578698625	205.56639120570748	3721.751190604332	471.2190370967231	358.3393264354595	3495.7075005882725	512.7748668688033	418.1541679159064	3493.011100069119	604.5154765696075	435.1313992530325	3506.031249263325	621.5461425795029	464.4785267884537	3483.99340642567	608.3771954071575	-29.842778259981763	3584.95561125983	839.0932606583717	223.46396670075987	3488.1640104327935	805.7887234507713	369.06472859122755	3436.3940807334257	628.129810826704	410.5495483062742	3439.91457633851	528.5899222660547	442.9053547462079	3496.5931712344372	551.5695619530965	460.58599923611735	3446.9301986904366	589.1857691045926
